HIERARCHY
ROOT Hips
{
	OFFSET 0.000000 71.427986 0.000000
	CHANNELS 6 Xposition Yposition Zposition Xrotation Yrotation Zrotation
	JOINT Pelvis
	{
		OFFSET 0.000000 0.000000 0.000000
		CHANNELS 3 Xrotation Yrotation Zrotation
		JOINT LeftUpLeg
		{
			OFFSET 6.797100 -2.508499 -1.318700
			CHANNELS 3 Xrotation Yrotation Zrotation
			JOINT LeftLeg
			{
				OFFSET 0.069008 -29.241863 0.690200
				CHANNELS 3 Xrotation Yrotation Zrotation
				JOINT LeftFoot
				{
					OFFSET -0.069008 -29.568123 -0.266800
					CHANNELS 3 Xrotation Yrotation Zrotation
					JOINT LeftToeBase
					{
						OFFSET 3.145500 -8.631000 16.059900
						CHANNELS 3 Xrotation Yrotation Zrotation
						End Site
						{
							OFFSET 0.000000 18.501587 0.000000
						}
					}
				}
			}
			JOINT Left_ShortSleeve
			{
				OFFSET 0.265923 -10.480953 1.153800
				CHANNELS 3 Xrotation Yrotation Zrotation
				End Site
				{
					OFFSET 1.725763 19.823879 0.000000
				}
			}
		}
		JOINT RightUpLeg
		{
			OFFSET -6.797100 -2.508499 -1.318700
			CHANNELS 3 Xrotation Yrotation Zrotation
			JOINT RightLeg
			{
				OFFSET -0.082453 -29.241932 0.688000
				CHANNELS 3 Xrotation Yrotation Zrotation
				JOINT RightFoot
				{
					OFFSET 0.082453 -29.568058 -0.264600
					CHANNELS 3 Xrotation Yrotation Zrotation
					JOINT RightToeBase
					{
						OFFSET -3.115300 -8.682800 16.113400
						CHANNELS 3 Xrotation Yrotation Zrotation
						End Site
						{
							OFFSET 0.000000 18.567114 0.000000
						}
					}
				}
			}
			JOINT Right_ShortSleeve
			{
				OFFSET -0.265923 -10.480953 1.153800
				CHANNELS 3 Xrotation Yrotation Zrotation
				End Site
				{
					OFFSET -1.725766 19.823910 0.000000
				}
			}
		}
	}
	JOINT Spine
	{
		OFFSET 0.000000 13.368103 0.470500
		CHANNELS 3 Xrotation Yrotation Zrotation
		JOINT Spine1
		{
			OFFSET 0.147000 13.837402 0.538800
			CHANNELS 3 Xrotation Yrotation Zrotation
			JOINT Spine2
			{
				OFFSET 0.168000 16.242897 -1.435500
				CHANNELS 3 Xrotation Yrotation Zrotation
				JOINT Neck
				{
					OFFSET 0.217200 18.631500 -1.679100
					CHANNELS 3 Xrotation Yrotation Zrotation
					JOINT Head
					{
						OFFSET 0.000000 6.599396 1.385900
						CHANNELS 3 Xrotation Yrotation Zrotation
						JOINT Hat
						{
							OFFSET -0.532200 27.220596 -10.096100
							CHANNELS 3 Xrotation Yrotation Zrotation
							End Site
							{
								OFFSET 0.000000 22.029861 0.000000
							}
						}
						JOINT HairD
						{
							OFFSET -10.777400 17.437393 -1.325900
							CHANNELS 3 Xrotation Yrotation Zrotation
							JOINT HairD1
							{
								OFFSET -3.290299 -11.051193 1.062200
								CHANNELS 3 Xrotation Yrotation Zrotation
								End Site
								{
									OFFSET 0.000000 11.579437 0.000000
								}
							}
						}
						JOINT HairB
						{
							OFFSET -10.777400 17.437393 1.467900
							CHANNELS 3 Xrotation Yrotation Zrotation
							JOINT HairB1
							{
								OFFSET -1.561200 -12.956299 3.590200
								CHANNELS 3 Xrotation Yrotation Zrotation
								End Site
								{
									OFFSET 0.000000 13.534866 0.000000
								}
							}
						}
						JOINT HairA
						{
							OFFSET 9.713100 17.437393 1.467900
							CHANNELS 3 Xrotation Yrotation Zrotation
							JOINT HairA1
							{
								OFFSET 1.561200 -12.956299 3.590200
								CHANNELS 3 Xrotation Yrotation Zrotation
								End Site
								{
									OFFSET 0.000000 13.534866 0.000000
								}
							}
						}
						JOINT HairC
						{
							OFFSET 9.713100 17.437393 -1.325900
							CHANNELS 3 Xrotation Yrotation Zrotation
							JOINT HairC1
							{
								OFFSET 3.290300 -11.051193 1.062200
								CHANNELS 3 Xrotation Yrotation Zrotation
								End Site
								{
									OFFSET 0.000000 11.579437 0.000000
								}
							}
						}
					}
				}
				JOINT LeftShoulder
				{
					OFFSET 5.101800 15.108002 -2.763700
					CHANNELS 3 Xrotation Yrotation Zrotation
					JOINT LeftArm
					{
						OFFSET 9.825497 2.506317 -1.597400
						CHANNELS 3 Xrotation Yrotation Zrotation
						JOINT LeftForeArm
						{
							OFFSET 21.966244 0.000000 0.000000
							CHANNELS 3 Xrotation Yrotation Zrotation
							JOINT LeftHand
							{
								OFFSET 33.879036 0.000000 0.000000
								CHANNELS 3 Xrotation Yrotation Zrotation
								JOINT LeftHandThumb1
								{
									OFFSET 6.715286 -2.359680 3.363841
									CHANNELS 3 Xrotation Yrotation Zrotation
									JOINT LeftHandThumb2
									{
										OFFSET 2.507072 -1.447464 1.447461
										CHANNELS 3 Xrotation Yrotation Zrotation
										JOINT LeftHandThumb3
										{
											OFFSET 2.898338 -1.673355 1.673357
											CHANNELS 3 Xrotation Yrotation Zrotation
											End Site
											{
												OFFSET -0.295959 3.727692 -0.131651
											}
										}
									}
								}
								JOINT LeftHandIndex1
								{
									OFFSET 14.190811 -0.254547 3.840278
									CHANNELS 3 Xrotation Yrotation Zrotation
									JOINT LeftHandIndex2
									{
										OFFSET 3.551727 0.000000 -0.000000
										CHANNELS 3 Xrotation Yrotation Zrotation
										JOINT LeftHandIndex3
										{
											OFFSET 2.894196 0.000000 0.000000
											CHANNELS 3 Xrotation Yrotation Zrotation
											End Site
											{
												OFFSET -1.000603 2.690872 0.366626
											}
										}
									}
								}
								JOINT LeftHandMiddle1
								{
									OFFSET 13.776489 0.000000 0.000000
									CHANNELS 3 Xrotation Yrotation Zrotation
									JOINT LeftHandMiddle2
									{
										OFFSET 3.438232 0.000000 0.000000
										CHANNELS 3 Xrotation Yrotation Zrotation
										JOINT LeftHandMiddle3
										{
											OFFSET 3.691551 0.000000 0.000000
											CHANNELS 3 Xrotation Yrotation Zrotation
											End Site
											{
												OFFSET -1.082298 3.499527 0.457670
											}
										}
									}
								}
								JOINT LeftHandRing1
								{
									OFFSET 13.966164 -0.268127 -3.067488
									CHANNELS 3 Xrotation Yrotation Zrotation
									JOINT LeftHandRing2
									{
										OFFSET 3.162567 0.000000 0.000000
										CHANNELS 3 Xrotation Yrotation Zrotation
										JOINT LeftHandRing3
										{
											OFFSET 3.324348 0.000000 0.000000
											CHANNELS 3 Xrotation Yrotation Zrotation
											End Site
											{
												OFFSET -0.861900 3.184998 0.405154
											}
										}
									}
								}
								JOINT LeftHandPinky1
								{
									OFFSET 13.131393 -0.168503 -5.746925
									CHANNELS 3 Xrotation Yrotation Zrotation
									JOINT LeftHandPinky2
									{
										OFFSET 2.849182 0.000000 0.000000
										CHANNELS 3 Xrotation Yrotation Zrotation
										JOINT LeftHandPinky3
										{
											OFFSET 2.805038 0.000000 0.000000
											CHANNELS 3 Xrotation Yrotation Zrotation
											End Site
											{
												OFFSET -0.882500 2.642609 0.325652
											}
										}
									}
								}
							}
							JOINT Left_Sleeve
							{
								OFFSET 6.592125 -0.646545 0.805568
								CHANNELS 3 Xrotation Yrotation Zrotation
								End Site
								{
									OFFSET -0.000179 20.275787 -0.000000
								}
							}
						}
					}
				}
				JOINT RightShoulder
				{
					OFFSET -5.731700 15.108002 -2.763700
					CHANNELS 3 Xrotation Yrotation Zrotation
					JOINT RightArm
					{
						OFFSET -9.825497 2.506317 -1.597400
						CHANNELS 3 Xrotation Yrotation Zrotation
						JOINT RightForeArm
						{
							OFFSET -21.966242 0.000000 0.000000
							CHANNELS 3 Xrotation Yrotation Zrotation
							JOINT RightHand
							{
								OFFSET -33.879032 0.000000 0.000000
								CHANNELS 3 Xrotation Yrotation Zrotation
								JOINT RightHandThumb1
								{
									OFFSET -6.715286 -2.359680 3.363841
									CHANNELS 3 Xrotation Yrotation Zrotation
									JOINT RightHandThumb2
									{
										OFFSET -2.507072 -1.447464 1.447461
										CHANNELS 3 Xrotation Yrotation Zrotation
										JOINT RightHandThumb3
										{
											OFFSET -2.898338 -1.673355 1.673357
											CHANNELS 3 Xrotation Yrotation Zrotation
											End Site
											{
												OFFSET 0.295959 3.727692 -0.131651
											}
										}
									}
								}
								JOINT RightHandIndex1
								{
									OFFSET -14.190811 -0.254547 3.840278
									CHANNELS 3 Xrotation Yrotation Zrotation
									JOINT RightHandIndex2
									{
										OFFSET -3.551727 0.000000 -0.000000
										CHANNELS 3 Xrotation Yrotation Zrotation
										JOINT RightHandIndex3
										{
											OFFSET -2.894196 0.000000 0.000000
											CHANNELS 3 Xrotation Yrotation Zrotation
											End Site
											{
												OFFSET 1.000603 2.690872 0.366626
											}
										}
									}
								}
								JOINT RightHandMiddle1
								{
									OFFSET -13.776489 0.000000 0.000000
									CHANNELS 3 Xrotation Yrotation Zrotation
									JOINT RightHandMiddle2
									{
										OFFSET -3.438232 0.000000 0.000000
										CHANNELS 3 Xrotation Yrotation Zrotation
										JOINT RightHandMiddle3
										{
											OFFSET -3.691551 0.000000 0.000000
											CHANNELS 3 Xrotation Yrotation Zrotation
											End Site
											{
												OFFSET 1.082298 3.499527 0.457670
											}
										}
									}
								}
								JOINT RightHandRing1
								{
									OFFSET -13.966164 -0.268127 -3.067488
									CHANNELS 3 Xrotation Yrotation Zrotation
									JOINT RightHandRing2
									{
										OFFSET -3.162567 0.000000 0.000000
										CHANNELS 3 Xrotation Yrotation Zrotation
										JOINT RightHandRing3
										{
											OFFSET -3.324348 0.000000 0.000000
											CHANNELS 3 Xrotation Yrotation Zrotation
											End Site
											{
												OFFSET 0.861900 3.184998 0.405154
											}
										}
									}
								}
								JOINT RightHandPinky1
								{
									OFFSET -13.131393 -0.168503 -5.746925
									CHANNELS 3 Xrotation Yrotation Zrotation
									JOINT RightHandPinky2
									{
										OFFSET -2.849182 0.000000 0.000000
										CHANNELS 3 Xrotation Yrotation Zrotation
										JOINT RightHandPinky3
										{
											OFFSET -2.805038 0.000000 0.000000
											CHANNELS 3 Xrotation Yrotation Zrotation
											End Site
											{
												OFFSET 0.882500 2.642609 0.325652
											}
										}
									}
								}
							}
							JOINT Right_Sleeve
							{
								OFFSET -6.592125 -0.646545 0.805568
								CHANNELS 3 Xrotation Yrotation Zrotation
								End Site
								{
									OFFSET 0.000179 20.275787 -0.000000
								}
							}
						}
					}
				}
				JOINT Bind_Right_JacketString
				{
					OFFSET -3.534800 11.969597 7.200700
					CHANNELS 3 Xrotation Yrotation Zrotation
					JOINT Bind_Right_JacketString1
					{
						OFFSET -0.319900 -6.102600 2.794100
						CHANNELS 3 Xrotation Yrotation Zrotation
						End Site
						{
							OFFSET 0.000000 6.719452 0.000000
						}
					}
				}
				JOINT Bind_Left_JacketString
				{
					OFFSET 2.904800 11.969597 7.200700
					CHANNELS 3 Xrotation Yrotation Zrotation
					JOINT Bind_Left_JacketString1
					{
						OFFSET 0.364800 -5.904503 3.186800
						CHANNELS 3 Xrotation Yrotation Zrotation
						End Site
						{
							OFFSET 0.000000 6.719513 0.000000
						}
					}
				}
				JOINT HairE
				{
					OFFSET 5.915200 17.612701 -11.592200
					CHANNELS 3 Xrotation Yrotation Zrotation
					JOINT HairE1
					{
						OFFSET 0.289200 -7.171898 -1.284500
						CHANNELS 3 Xrotation Yrotation Zrotation
						End Site
						{
							OFFSET 0.000000 7.291756 0.000000
						}
					}
				}
				JOINT HairF
				{
					OFFSET -0.864800 17.612701 -11.592200
					CHANNELS 3 Xrotation Yrotation Zrotation
					JOINT HairF1
					{
						OFFSET 0.000000 -14.087097 -2.127501
						CHANNELS 3 Xrotation Yrotation Zrotation
						End Site
						{
							OFFSET 0.000000 14.246841 0.000000
						}
					}
				}
				JOINT HairG
				{
					OFFSET -8.087700 17.612701 -11.592200
					CHANNELS 3 Xrotation Yrotation Zrotation
					JOINT HairG1
					{
						OFFSET -0.293600 -6.081398 -0.910100
						CHANNELS 3 Xrotation Yrotation Zrotation
						End Site
						{
							OFFSET 0.000000 6.156120 0.000000
						}
					}
				}
			}
		}
	}
	JOINT Pouch
	{
		OFFSET 0.000000 4.394501 10.847300
		CHANNELS 3 Xrotation Yrotation Zrotation
		End Site
		{
			OFFSET 0.000000 21.880577 0.000000
		}
	}
	JOINT Bag
	{
		OFFSET -13.229000 4.813004 -0.593300
		CHANNELS 3 Xrotation Yrotation Zrotation
		End Site
		{
			OFFSET 0.000000 21.880577 0.000000
		}
	}
	JOINT OccupyGuyFacialAnim_Joint
	{
		OFFSET 1.000000 -70.206398 -1.655000
		CHANNELS 3 Xrotation Yrotation Zrotation
		End Site
		{
			OFFSET 0.000000 21.880577 0.000000
		}
	}
}
MOTION
Frames: 4
Frame Time: 0.016667
3.605282 67.582306 -4.455238 7.535343 -32.850922 -20.035660 0.000000 0.000000 -0.000000 -34.145277 -8.401437 27.428638 49.014780 5.217073 8.622894 -12.546513 29.979893 -12.587129 0.000000 -0.000001 -0.000000 0.000001 -0.000002 -0.000000 -23.690472 5.268910 26.197583 19.195763 -0.029285 7.347054 -2.041855 13.125779 -8.140605 0.000000 0.000000 -0.000000 -0.000000 -0.000000 -0.000000 20.008196 -5.313560 14.616897 14.882784 -0.853707 11.261198 15.131248 -0.648047 9.675238 -9.983883 -2.860074 5.479612 44.315220 -21.168851 34.786386 0.000001 -0.000001 0.000001 0.000001 -0.000001 0.000001 0.000001 -0.000001 0.000001 0.000001 -0.000001 0.000000 -0.000000 -0.000000 -0.000000 0.000001 -0.000001 0.000000 -0.000000 -0.000000 -0.000000 0.000001 -0.000001 0.000001 0.000001 -0.000001 0.000001 1.428807 -22.224466 -11.600547 -29.377115 -24.713921 -57.022862 0.000004 -6.918361 -0.000006 -21.663613 1.158973 -14.566420 18.491270 -0.461403 10.916065 1.284075 32.757608 -3.088978 0.000000 -0.000002 0.000000 0.339564 4.671355 -7.844269 0.387031 2.823570 -20.566219 0.000002 0.000000 -0.000000 0.912585 8.769268 -15.831740 0.919074 3.991131 -33.400417 -0.000000 0.000001 -0.000003 2.555821 11.673012 -26.909210 1.710648 3.886790 -40.215471 0.000000 -0.000000 0.000001 5.576070 16.029175 -36.940617 1.378695 4.077646 -45.645635 -0.000000 -0.000001 0.000001 -0.000000 -0.000000 -0.000000 2.724533 8.294347 13.452998 6.429293 49.813813 20.457861 0.000003 22.722603 -0.000010 -0.688174 13.861791 2.493910 18.491272 0.461405 -10.916072 1.284058 -32.757608 3.088957 0.000002 -0.000001 0.000000 0.339562 -4.671355 7.844290 0.387028 -2.823572 20.566251 -0.000001 0.000001 0.000000 0.912580 -8.769270 15.831764 0.919074 -3.991133 33.400424 0.000001 0.000000 -0.000002 2.555821 -11.673009 26.909195 1.710652 -3.886792 40.215471 -0.000000 -0.000002 -0.000003 5.576077 -16.029172 36.940638 1.378687 -4.077640 45.645618 -0.000001 0.000001 -0.000001 0.000000 -0.000001 -0.000000 0.000003 0.000000 0.000001 -0.000000 0.000002 -0.000002 0.000003 0.000000 0.000001 0.000003 0.000000 0.000001 0.000003 0.000000 0.000001 -0.000000 0.000002 -0.000002 0.000003 0.000000 0.000001 0.000003 0.000000 0.000001 0.000003 0.000000 0.000001 -0.000000 0.000002 -0.000002 0.000000 0.000000 -0.000000 0.000000 0.000000 -0.000000 0.000000 0.000000 -0.000000 
3.553635 67.580093 -4.454367 7.542211 -32.721719 -20.015284 0.000001 -0.000002 0.000002 -34.181630 -8.348503 27.463081 48.984525 5.191527 8.622379 -12.556740 29.802014 -12.588584 -0.000000 -0.000001 -0.000000 -0.000001 -0.000002 -0.000000 -23.693499 5.259226 26.218110 19.238302 -0.012571 7.333541 -2.096363 12.983886 -8.173681 0.000000 -0.000000 -0.000000 0.000001 -0.000001 -0.000001 19.935089 -5.350015 14.686095 14.845360 -0.865570 11.290749 15.093031 -0.659118 9.704712 -9.957543 -2.861788 5.471386 44.377832 -21.263545 34.788913 -0.000000 0.000000 -0.000000 -0.000000 0.000000 -0.000000 -0.000000 0.000000 -0.000000 -0.000000 0.000000 -0.000000 -0.000000 0.000000 -0.000000 -0.000000 0.000000 -0.000000 -0.000000 0.000000 -0.000000 -0.000000 0.000000 -0.000000 -0.000000 0.000000 -0.000000 1.421056 -22.263300 -11.624749 -29.239497 -24.946665 -57.154009 -0.000002 -6.919554 -0.000006 -22.087459 0.509895 -14.614114 18.491272 -0.461403 10.916065 1.284075 32.757598 -3.088977 0.000000 0.000001 -0.000001 0.339563 4.671355 -7.844270 0.387029 2.823570 -20.566222 0.000003 -0.000001 0.000007 0.912584 8.769269 -15.831742 0.919075 3.991128 -33.400414 0.000002 0.000002 -0.000004 2.555823 11.673009 -26.909209 1.710649 3.886789 -40.215474 0.000001 -0.000000 0.000002 5.576068 16.029180 -36.940621 1.378693 4.077647 -45.645635 -0.000000 0.000000 0.000001 0.000000 0.000000 -0.000000 2.805131 8.300653 13.088448 6.473859 49.476319 20.586778 -0.000002 23.126213 0.000020 -0.900185 13.002783 2.887945 18.491274 0.461405 -10.916072 1.284059 -32.757608 3.088956 0.000001 -0.000001 -0.000000 0.339562 -4.671355 7.844287 0.387032 -2.823570 20.566249 0.000000 0.000001 -0.000001 0.912581 -8.769270 15.831765 0.919073 -3.991131 33.400424 0.000001 -0.000002 -0.000001 2.555822 -11.673008 26.909195 1.710652 -3.886791 40.215471 0.000000 -0.000001 0.000004 5.576080 -16.029175 36.940631 1.378688 -4.077642 45.645621 0.000000 0.000001 -0.000003 -0.000000 -0.000000 0.000000 -0.000000 0.000001 -0.000001 -0.000001 0.000003 -0.000003 -0.000000 0.000001 -0.000001 -0.000000 0.000001 -0.000001 -0.000000 0.000001 -0.000001 -0.000001 0.000003 -0.000002 -0.000000 0.000001 -0.000001 -0.000000 0.000001 -0.000001 -0.000000 0.000001 -0.000001 -0.000001 0.000003 -0.000002 0.000001 -0.000002 0.000002 0.000001 -0.000002 0.000002 0.000001 -0.000002 0.000002 
3.500879 67.579781 -4.450977 7.546070 -32.572537 -19.989565 -0.000000 0.000001 -0.000000 -34.204696 -8.303293 27.480986 48.938654 5.194530 8.622339 -12.560673 29.593710 -12.595826 0.000000 -0.000001 -0.000000 0.000001 -0.000000 0.000000 -23.688681 5.251995 26.234140 19.278065 0.007909 7.310330 -2.157270 12.820732 -8.200989 0.000000 -0.000000 -0.000000 0.000001 0.000001 -0.000000 19.864490 -5.385679 14.755761 14.807939 -0.877130 11.320875 15.054857 -0.669732 9.734746 -9.932003 -2.864893 5.463857 44.440185 -21.362281 34.797611 -0.000000 -0.000001 -0.000000 -0.000000 -0.000001 -0.000000 -0.000000 -0.000001 -0.000000 -0.000000 -0.000001 0.000000 -0.000000 -0.000000 -0.000000 -0.000000 -0.000001 0.000000 -0.000000 -0.000000 -0.000000 -0.000000 -0.000001 -0.000000 -0.000000 -0.000001 -0.000000 1.413660 -22.300066 -11.647848 -29.076764 -25.170198 -57.285343 0.000005 -6.920568 -0.000006 -22.500204 -0.128285 -14.674308 18.491274 -0.461403 10.916067 1.284076 32.757598 -3.088977 -0.000000 0.000004 -0.000001 0.339563 4.671354 -7.844269 0.387031 2.823569 -20.566217 0.000003 -0.000000 0.000005 0.912585 8.769268 -15.831740 0.919076 3.991130 -33.400417 0.000001 0.000001 -0.000003 2.555822 11.673012 -26.909205 1.710648 3.886790 -40.215471 -0.000000 0.000000 -0.000001 5.576070 16.029173 -36.940614 1.378694 4.077646 -45.645632 0.000001 -0.000001 0.000001 0.000000 -0.000000 0.000000 2.887474 8.303048 12.724772 6.502557 49.145055 20.735542 0.000001 23.528018 -0.000010 -1.075799 12.131592 3.207521 18.491279 0.461405 -10.916072 1.284066 -32.757608 3.088954 -0.000000 -0.000001 -0.000000 0.339562 -4.671358 7.844287 0.387030 -2.823570 20.566243 0.000001 0.000001 0.000000 0.912584 -8.769270 15.831765 0.919075 -3.991130 33.400424 0.000000 -0.000001 -0.000004 2.555822 -11.673014 26.909197 1.710654 -3.886790 40.215471 0.000002 -0.000001 0.000005 5.576082 -16.029175 36.940634 1.378691 -4.077646 45.645618 -0.000001 0.000003 -0.000001 0.000000 0.000001 -0.000001 0.000003 -0.000000 -0.000002 0.000002 -0.000002 -0.000000 0.000003 -0.000000 -0.000002 0.000003 -0.000000 -0.000002 0.000003 -0.000000 -0.000002 0.000002 -0.000002 -0.000000 0.000003 -0.000000 -0.000002 0.000003 -0.000000 -0.000002 0.000003 -0.000000 -0.000002 0.000002 -0.000002 -0.000000 -0.000000 0.000001 -0.000000 -0.000000 0.000001 -0.000000 -0.000000 0.000001 -0.000000 
3.447254 67.581543 -4.444756 7.546297 -32.404518 -19.958728 0.000000 -0.000001 -0.000001 -34.211796 -8.267465 27.481541 48.877377 5.220647 8.622656 -12.556948 29.368058 -12.609093 0.000000 0.000000 -0.000000 -0.000000 0.000000 -0.000001 -23.673181 5.246930 26.244167 19.312510 0.027325 7.279476 -2.222494 12.643935 -8.223617 0.000000 -0.000000 0.000000 0.000000 0.000002 -0.000000 19.795806 -5.419677 14.826000 14.770569 -0.887984 11.351577 15.016757 -0.679467 9.765328 -9.907241 -2.869365 5.456876 44.501134 -21.464009 34.810609 0.000000 -0.000001 -0.000000 0.000000 -0.000001 -0.000000 0.000000 -0.000001 -0.000000 0.000000 -0.000001 -0.000000 0.000000 -0.000001 -0.000000 0.000000 -0.000001 -0.000000 0.000000 -0.000001 -0.000000 0.000000 -0.000001 -0.000000 0.000000 -0.000001 -0.000000 1.406860 -22.333675 -11.669306 -28.888832 -25.384545 -57.416332 -0.000014 -6.922037 -0.000009 -22.902241 -0.751428 -14.745270 18.491274 -0.461405 10.916069 1.284074 32.757598 -3.088977 -0.000000 -0.000001 -0.000001 0.339562 4.671355 -7.844267 0.387032 2.823569 -20.566217 0.000000 -0.000001 0.000003 0.912588 8.769267 -15.831743 0.919075 3.991131 -33.400424 0.000001 0.000000 0.000001 2.555824 11.673009 -26.909205 1.710651 3.886789 -40.215471 -0.000000 -0.000001 -0.000000 5.576072 16.029178 -36.940621 1.378689 4.077646 -45.645632 0.000001 -0.000001 0.000001 0.000000 0.000000 0.000000 2.971372 8.302338 12.360867 6.513145 48.819942 20.906743 -0.000000 23.926612 -0.000009 -1.214044 11.254104 3.455866 18.491274 0.461404 -10.916068 1.284063 -32.757611 3.088954 0.000002 -0.000002 -0.000000 0.339562 -4.671358 7.844289 0.387026 -2.823571 20.566246 0.000000 -0.000001 0.000000 0.912585 -8.769271 15.831765 0.919075 -3.991132 33.400428 0.000002 0.000000 -0.000001 2.555821 -11.673010 26.909188 1.710654 -3.886791 40.215471 0.000003 -0.000001 -0.000001 5.576083 -16.029175 36.940638 1.378688 -4.077641 45.645618 -0.000001 0.000002 -0.000001 0.000001 0.000000 -0.000000 -0.000000 0.000001 -0.000001 -0.000001 0.000001 -0.000002 -0.000000 0.000001 0.000000 -0.000000 0.000001 0.000000 -0.000000 0.000001 -0.000001 -0.000001 0.000001 -0.000001 -0.000000 0.000001 0.000000 -0.000000 0.000001 0.000000 -0.000000 0.000001 -0.000001 -0.000001 0.000001 -0.000001 0.000000 -0.000001 -0.000001 0.000000 -0.000001 -0.000001 0.000000 -0.000001 -0.000001 
